<?xml version="1.0" standalone="no"?>
<!DOCTYPE svg PUBLIC "-//W3C//DTD SVG 20010904//EN"
 "http://www.w3.org/TR/2001/REC-SVG-20010904/DTD/svg10.dtd">
<svg version="1.0" xmlns="http://www.w3.org/2000/svg"
 width="150.000000pt" height="150.000000pt" viewBox="0 0 150.000000 150.000000"
 preserveAspectRatio="xMidYMid meet">
<metadata>
Created by potrace 1.14, written by Peter Selinger 2001-2017
</metadata>
<g transform="translate(0.000000,150.000000) scale(0.100000,-0.100000)"
fill="#000000" stroke="none">
<path d="M0 750 l0 -750 750 0 750 0 0 750 0 750 -750 0 -750 0 0 -750z m1011
526 c161 -81 285 -240 296 -381 6 -73 -17 -129 -72 -171 -22 -16 -35 -35 -35
-49 0 -30 -28 -63 -61 -70 -26 -6 -26 -6 -33 64 -6 67 -37 171 -59 199 -12 15
-10 17 23 25 15 4 38 0 55 -9 37 -19 50 -6 49 49 -1 54 -25 99 -84 157 -58 59
-103 83 -157 84 -55 1 -68 -12 -49 -50 16 -32 10 -88 -8 -80 -89 40 -145 57
-205 62 -72 7 -72 7 -66 33 7 32 40 61 68 61 11 0 35 18 55 41 20 23 50 48 66
56 48 21 151 11 217 -21z m-279 -197 c248 -52 407 -308 343 -552 -21 -81 -47
-127 -109 -194 -96 -104 -211 -149 -359 -140 -75 4 -99 10 -161 40 -284 141
-345 516 -119 728 117 110 254 150 405 118z"/>
</g>
</svg>
